<?xml version="1.0" standalone="no"?>
<!DOCTYPE svg PUBLIC "-//W3C//DTD SVG 20010904//EN"
 "http://www.w3.org/TR/2001/REC-SVG-20010904/DTD/svg10.dtd">
<svg version="1.0" xmlns="http://www.w3.org/2000/svg"
 width="567.000000pt" height="567.000000pt" viewBox="0 0 567.000000 567.000000"
 preserveAspectRatio="xMidYMid meet">
<metadata>
Created by potrace 1.14, written by Peter Selinger 2001-2017
</metadata>
<g transform="translate(0.000000,567.000000) scale(0.100000,-0.100000)"
fill="#000000" stroke="none">
<path d="M2918 5525 c-1 -1 -28 -6 -58 -9 -30 -3 -66 -8 -80 -11 -30 -7 -58
-13 -85 -19 -11 -2 -72 -18 -135 -35 -63 -17 -123 -33 -133 -36 -10 -2 -26 -6
-35 -9 -9 -3 -28 -7 -42 -10 -14 -3 -61 -14 -105 -25 -44 -10 -114 -27 -155
-36 -41 -9 -82 -19 -90 -22 -8 -4 -18 -6 -22 -5 -4 1 -20 -3 -35 -9 -28 -11
-121 -37 -158 -45 -11 -2 -33 -7 -50 -11 -16 -4 -32 -7 -35 -8 -51 -10 -111
-29 -116 -36 -3 -5 -10 -7 -15 -3 -5 3 -15 2 -22 -4 -10 -7 -84 -31 -119 -38
-5 -1 -9 -2 -10 -4 -2 -1 -10 -3 -18 -5 -47 -9 -105 -28 -157 -51 -32 -14 -60
-26 -63 -26 -7 -1 -9 -2 -115 -38 -49 -17 -109 -39 -131 -50 -23 -10 -53 -22
-67 -25 -44 -11 -21 -63 28 -66 11 0 27 -2 35 -4 12 -3 253 -52 348 -71 13 -3
74 -15 135 -29 139 -30 164 -35 202 -41 17 -3 72 -14 123 -25 52 -12 101 -22
110 -24 9 -2 18 -4 20 -5 2 -3 18 -7 30 -9 15 -2 29 -45 23 -71 -4 -14 -6 -59
-5 -100 2 -94 -12 -118 -57 -94 -16 8 -31 14 -34 14 -3 0 -13 6 -21 15 -9 8
-22 15 -30 15 -8 0 -14 5 -14 10 0 6 -5 10 -10 10 -10 0 -37 22 -100 80 -14
14 -42 48 -62 75 -32 47 -57 60 -83 46 -5 -3 -12 -6 -15 -7 -78 -15 -159 -170
-186 -359 -6 -42 -9 -180 -4 -180 1 0 3 -9 4 -20 13 -101 37 -195 57 -221 5
-6 15 -27 24 -46 14 -36 14 -37 -18 -70 -18 -18 -48 -54 -65 -80 -18 -25 -39
-54 -48 -62 -8 -9 -12 -16 -9 -16 4 0 -2 -15 -13 -32 -42 -68 -72 -136 -93
-213 -76 -276 -53 -634 51 -820 11 -20 18 -41 14 -46 -3 -6 -26 -19 -49 -29
-106 -45 -283 -240 -342 -378 -9 -20 -17 -39 -18 -42 0 -3 -10 -25 -21 -51
-12 -25 -27 -70 -33 -100 -7 -29 -16 -65 -20 -80 -11 -37 -12 -276 0 -334 5
-27 15 -75 21 -105 7 -30 12 -57 13 -60 7 -50 137 -332 165 -360 3 -3 11 -17
19 -32 8 -16 18 -28 23 -28 4 0 8 -5 8 -11 0 -10 59 -86 105 -135 11 -12 27
-30 35 -40 56 -68 272 -223 344 -248 120 -40 226 -59 242 -43 6 6 15 77 15
117 0 19 -1 86 -1 149 -1 114 3 138 20 111 6 -8 10 -11 10 -7 0 4 17 -4 37
-18 21 -14 44 -25 51 -25 7 0 11 -4 8 -9 -3 -5 10 -12 29 -15 43 -8 47 -39 10
-74 -42 -40 -87 -145 -91 -209 -5 -124 36 -209 130 -267 40 -25 58 -30 107
-29 33 1 66 7 74 13 11 9 27 6 72 -16 32 -15 75 -29 95 -31 42 -5 148 14 148
27 0 4 33 8 73 8 60 -1 82 3 117 23 63 35 124 103 136 154 2 6 5 20 8 33 6 29
16 43 24 38 9 -5 97 -16 168 -21 62 -3 86 -21 77 -56 -6 -23 32 -83 64 -100
13 -7 23 -16 23 -21 0 -4 9 -8 20 -8 11 0 20 -4 20 -8 0 -5 6 -9 13 -10 96 -6
146 -16 181 -36 33 -19 54 -23 106 -21 72 2 115 11 144 31 13 9 25 10 38 3 10
-5 18 -7 18 -3 0 3 6 2 13 -3 31 -25 197 7 197 37 0 6 5 10 11 10 14 0 39 25
39 39 0 6 4 11 9 11 16 0 42 88 44 156 4 95 -36 234 -66 234 -4 0 -5 5 -2 10
3 6 2 10 -3 10 -20 0 -19 37 2 51 11 7 24 13 27 14 3 0 13 8 23 17 16 17 30
22 49 19 5 -1 6 3 3 8 -3 5 1 11 9 15 8 3 17 0 21 -6 6 -9 8 -163 3 -184 -2
-5 1 -34 6 -64 5 -30 7 -63 6 -73 -8 -59 76 -56 217 9 29 13 54 24 57 24 11 0
125 74 125 81 0 5 4 9 10 9 11 0 44 26 69 52 8 10 19 18 23 18 11 0 108 100
108 112 0 5 4 6 10 3 5 -3 12 6 16 20 3 14 11 25 18 25 6 0 22 17 36 38 14 20
33 46 43 56 9 11 17 25 17 32 0 6 7 14 15 18 8 3 15 12 15 21 0 8 9 24 20 35
11 11 20 27 20 35 0 8 5 15 10 15 6 0 10 6 10 14 0 7 10 26 22 42 13 15 16 24
8 19 -11 -6 -11 -3 2 11 9 10 17 22 17 27 0 4 8 21 16 37 8 16 15 32 15 35 0
3 0 6 1 8 0 1 2 9 4 17 2 8 10 35 19 59 9 24 13 47 10 52 -3 5 -1 9 4 9 12 0
20 48 26 150 3 41 5 77 6 80 3 7 -1 61 -6 93 -3 21 -1 27 8 21 10 -6 10 -5 2
7 -7 8 -14 34 -17 59 -8 58 -14 88 -22 100 -3 5 -8 20 -10 32 -8 39 -49 153
-57 156 -5 2 -8 12 -8 23 0 10 -3 19 -8 19 -4 0 -13 14 -20 30 -13 29 -109
158 -142 190 -9 8 -42 38 -75 65 -33 28 -61 53 -63 58 -2 4 -9 7 -16 7 -7 0
-24 11 -38 23 l-26 24 39 79 c50 102 65 166 73 320 3 45 6 85 7 90 1 5 0 11
-1 14 -4 11 -8 38 -14 101 -5 58 -12 101 -31 189 -4 20 -29 105 -49 165 -2 6
-4 15 -5 20 -2 6 -8 17 -15 25 -7 8 -20 31 -30 50 -18 39 -36 68 -51 86 -5 7
-26 32 -45 58 -19 25 -40 45 -46 46 -26 1 -31 44 -12 100 11 30 22 66 24 80 3
14 7 32 10 40 3 8 7 33 10 55 2 22 7 51 11 65 3 14 7 41 8 61 1 19 4 40 6 45
15 28 -3 225 -25 276 -4 9 -9 22 -10 30 -3 17 -48 110 -61 125 -5 7 -15 18
-21 25 -6 8 -14 25 -17 40 -6 21 -3 27 16 32 12 3 32 6 45 6 12 0 22 5 22 11
0 5 4 8 8 5 4 -2 86 12 182 33 96 21 208 44 248 51 78 14 81 16 88 56 6 32
-11 54 -41 54 -12 0 -25 3 -29 7 -4 4 -19 9 -34 11 -14 2 -31 7 -37 11 -5 4
-30 13 -55 20 -25 8 -62 20 -83 27 -20 8 -44 14 -52 14 -7 0 -26 5 -42 12 -15
6 -37 13 -48 15 -11 2 -27 6 -35 10 -8 3 -19 7 -25 8 -5 1 -32 10 -60 20 -27
9 -61 19 -75 22 -14 2 -45 10 -70 18 -25 7 -72 21 -105 30 -33 9 -78 23 -100
31 -22 7 -49 15 -60 17 -34 6 -105 27 -220 65 -60 20 -114 37 -120 38 -5 2
-19 5 -30 8 -11 2 -39 11 -63 20 -23 8 -45 15 -47 15 -3 0 -31 9 -63 21 -31
12 -97 37 -147 55 -49 18 -103 38 -120 45 -16 7 -63 14 -104 16 -40 1 -79 5
-86 8 -7 2 -15 3 -17 1z"/>
</g>
</svg>
